<svg xmlns="http://www.w3.org/2000/svg" xmlns:xlink="http://www.w3.org/1999/xlink" width="179" height="92" viewBox="0 0 179 92">
    <defs>
        <path id="a" d="M.307.133h34.238V52.57H.307z"/>
        <path id="c" d="M.128.403h11.649v11.52H.127z"/>
    </defs>
    <g fill="none" fill-rule="evenodd" opacity=".33">
        <path fill="#FFF" d="M69.075 3c2.28.788 4.579 1.524 6.837 2.372 7.19 2.7 13.887 6.322 20.191 10.74 4.637 3.249 9.148 6.624 13.13 10.674 5.27 5.36 9.481 11.41 11.98 18.58a38.203 38.203 0 0 1 1.764 7.29c.014.105.014.212.023.344-1.455-.506-2.865-1.03-4.296-1.486-4.96-1.576-10.014-2.61-15.24-2.702-4.65-.081-9.159.59-13.49 2.334-.083.034-.17.058-.256.084-.013.002-.032-.017-.089-.05.32-.208.61-.431.928-.595 2.159-1.11 3.055-3.024 3.207-5.317.215-3.228-.305-6.384-1.197-9.48-1.756-6.092-4.838-11.497-8.562-16.56-4.25-5.775-9.22-10.875-14.562-15.621-.136-.121-.271-.244-.402-.37-.023-.022-.028-.065-.041-.097l.075-.14M56 56c1.114-2.167 2.282-4.28 3.306-6.46 2.965-6.315 5.023-12.9 5.655-19.873.588-6.483-.195-12.76-3.025-18.697-.534-1.118-1.185-2.182-1.786-3.27-.11-.199-.237-.388-.356-.582L59.91 7c1.13.764 2.283 1.495 3.383 2.3 5.654 4.135 10.432 9.087 14.031 15.107 3.612 6.04 5.58 12.562 5.674 19.612.013 1.003-.039 2.006-.043 3.01-.002.346-.11.497-.487.57-5.654 1.089-11.257 2.383-16.744 4.14-2.955.944-5.863 2.006-8.57 3.548-.393.224-.771.475-1.154.713"/>
        <g transform="translate(53)">
            <mask id="b" fill="#fff">
                <use xlink:href="#a"/>
            </mask>
            <path fill="#FFF" d="M.307.133C2.885.813 5.33 1.798 7.672 3.02c8.244 4.307 14.99 10.264 20.172 17.9 3.42 5.039 5.778 10.507 6.496 16.577.6 5.077-.111 9.97-2.241 14.649-.045.096-.092.19-.204.423 0-.237-.014-.332.002-.42 1.733-9.084.248-17.72-3.933-25.91C22.305 15.151 13.584 7.025 2.519 1.232 1.789.852 1.045.5.307.133" mask="url(#b)"/>
        </g>
        <path fill="#FFF" d="M119.999 60.142c-1.809.092-3.624.113-5.424.29-3.335.329-6.677.647-9.988 1.154-6.23.953-12.432 2.083-18.659 3.05-5.936.922-11.907 1.51-17.929 1.332-5.726-.17-11.317-1.088-16.715-3.053a.747.747 0 0 1-.284-.171c1.043.248 2.081.516 3.129.74 4.454.954 8.967 1.279 13.512 1.2 4.92-.086 9.806-.593 14.675-1.273 5.454-.762 10.902-1.568 16.363-2.28 5.378-.701 10.78-1.146 16.212-1.13 1.703.003 3.406 0 5.109 0l-.001.141M11 80.106c0 .07-.012.105-.035.105-.402 0-.836.179-1.302.537-.467.358-.883.83-1.25 1.417l-2.196 3.431v3.978c0 .364.033.628.098.792.064.165.195.276.39.335.194.059.504.087.93.087.035 0 .053.036.053.106S7.67 91 7.634 91c-.366 0-.655-.006-.867-.018l-1.276-.017-1.24.017c-.212.012-.513.018-.903.018-.036 0-.053-.035-.053-.106 0-.07.017-.106.053-.106.425 0 .738-.028.939-.087a.591.591 0 0 0 .407-.343c.07-.17.106-.432.106-.784v-3.678l-2.816-4.171c-.378-.564-.712-.956-1-1.18-.29-.222-.6-.334-.93-.334-.036 0-.054-.035-.054-.105 0-.07.018-.106.053-.106.13 0 .337.012.62.035l.585.018c.39 0 .927-.012 1.612-.035L3.897 80c.023 0 .035.035.035.106 0 .07-.012.105-.035.105-.555 0-.833.141-.833.423 0 .129.066.293.195.492l2.728 4.048 1.984-3.115c.283-.458.425-.833.425-1.126 0-.235-.082-.414-.248-.537-.165-.123-.407-.185-.726-.185-.036 0-.053-.035-.053-.105 0-.07.017-.106.053-.106l.868.018c.472.023.903.035 1.293.035.2 0 .443-.012.726-.035l.656-.018c.023 0 .035.035.035.106M18.443 85.505h2.986l-1.566-3.399-1.42 3.399zM27 91.887c0 .075-.025.113-.073.113-.23 0-.6-.013-1.11-.038a23.26 23.26 0 0 0-1.075-.038c-.28 0-.625.013-1.038.038a16.86 16.86 0 0 1-.928.038c-.049 0-.073-.038-.073-.113 0-.076.024-.114.073-.114.412 0 .71-.04.892-.122.182-.082.273-.23.273-.444s-.09-.51-.273-.887l-2.04-4.38h-3.35l-1.492 3.567c-.17.416-.255.763-.255 1.04 0 .817.588 1.226 1.766 1.226.06 0 .091.038.091.114 0 .075-.03.113-.091.113-.219 0-.534-.013-.947-.038a22.627 22.627 0 0 0-1.202-.038c-.315 0-.691.013-1.128.038a15.4 15.4 0 0 1-.947.038c-.049 0-.073-.038-.073-.113 0-.076.024-.114.073-.114.34 0 .628-.068.865-.207.236-.139.464-.378.682-.718.219-.34.467-.843.747-1.51l3.878-9.271c.012-.038.055-.06.128-.066.072-.006.115.016.127.066l4.388 9.346c.412.92.765 1.542 1.056 1.87.291.327.619.49.983.49.048 0 .073.038.073.114zM39.827 80.158c.622.105 1.118.25 1.487.435.101.05.168.101.2.157.031.056.06.151.086.287l.21 2.24c0 .038-.033.06-.096.066-.064.006-.102-.01-.114-.047-.331-.963-.871-1.682-1.62-2.157-.751-.475-1.653-.713-2.708-.713-.928 0-1.735.207-2.421.62a4.03 4.03 0 0 0-1.573 1.75c-.362.753-.543 1.624-.543 2.612 0 1.147.229 2.203.686 3.166.458.963 1.077 1.725 1.859 2.287.782.562 1.636.842 2.564.842 1.83 0 3.139-1.018 3.927-3.055 0-.037.025-.055.076-.055.039 0 .073.006.105.018.032.012.048.03.048.056l-.267 2.24c-.026.149-.054.244-.086.287-.032.044-.105.09-.219.14-1.17.444-2.364.666-3.584.666-1.538 0-2.821-.3-3.85-.898-1.03-.599-1.787-1.362-2.27-2.288A6.2 6.2 0 0 1 31 85.908c0-1.149.327-2.17.982-3.065.654-.895 1.518-1.593 2.593-2.093a8.053 8.053 0 0 1 3.44-.75c.585 0 1.189.053 1.812.158M59 90.894c0 .07-.019.106-.056.106-.398 0-.715-.005-.951-.018l-1.343-.017-1.474.017c-.211.013-.503.018-.876.018-.037 0-.056-.035-.056-.106 0-.07.019-.105.056-.105.472 0 .82-.03 1.044-.088.224-.059.373-.173.448-.343.075-.17.112-.432.112-.784v-4.1h-6.79v4.1c0 .352.038.614.113.784.074.17.224.284.447.343.224.059.572.088 1.045.088.025 0 .037.035.037.105 0 .07-.012.106-.037.106-.398 0-.715-.005-.951-.018l-1.437-.017-1.324.017c-.236.013-.56.018-.97.018-.025 0-.037-.035-.037-.106 0-.07.012-.105.037-.105.46 0 .799-.03 1.017-.088.217-.059.366-.173.447-.343.081-.17.122-.432.122-.784v-8.148c0-.352-.038-.61-.112-.774-.075-.165-.218-.28-.43-.344-.21-.064-.547-.096-1.006-.096-.038 0-.056-.036-.056-.106s.018-.106.056-.106l.95.018c.523.023.958.035 1.306.035.398 0 .883-.012 1.455-.035L50.72 80c.025 0 .037.035.037.106 0 .07-.012.106-.037.106-.46 0-.802.034-1.026.105-.224.07-.376.19-.457.36-.081.17-.121.432-.121.784v3.608h6.789V81.46c0-.352-.04-.613-.121-.783-.081-.17-.23-.29-.448-.361-.218-.07-.563-.105-1.035-.105-.037 0-.056-.036-.056-.106S54.263 80 54.3 80l.876.018c.572.023 1.064.035 1.474.035.348 0 .795-.012 1.343-.035l.951-.018c.037 0 .056.035.056.106 0 .07-.019.106-.056.106-.46 0-.796.032-1.007.096-.212.065-.358.18-.438.344-.082.164-.122.422-.122.774v8.148c0 .352.04.614.122.784.08.17.226.284.438.343.211.059.547.088 1.007.088.037 0 .056.035.056.105M65.137 81.532c-.415.422-.723 1.099-.924 2.028-.012.024-.05.036-.115.036-.066 0-.098-.012-.098-.036.047-.355.1-.918.16-1.688.059-.77.089-1.352.089-1.744 0-.06.035-.091.106-.091s.107.03.107.091c0 .27.325.404.977.404 1.006.037 2.196.055 3.57.055.698 0 1.439-.012 2.22-.037l1.208-.018c.438 0 .757-.03.96-.092a.548.548 0 0 0 .39-.367c.011-.048.05-.073.115-.073s.098.025.098.073c-.036.343-.074.894-.115 1.652-.042.758-.063 1.37-.063 1.835 0 .024-.032.036-.097.036-.066 0-.098-.012-.098-.036-.083-.942-.32-1.621-.71-2.037-.391-.416-.972-.624-1.741-.624-.438 0-.752.028-.942.083a.58.58 0 0 0-.39.312c-.071.153-.107.406-.107.762v8.458c0 .38.038.654.116.825.076.172.227.288.453.35.224.06.586.09 1.083.09.024 0 .036.038.036.11 0 .074-.012.111-.036.111-.415 0-.74-.006-.977-.018l-1.403-.019-1.368.019c-.237.012-.568.018-.994.018-.036 0-.054-.037-.054-.11 0-.073.018-.11.054-.11.485 0 .84-.03 1.065-.091.225-.062.379-.181.462-.359.083-.177.124-.45.124-.816v-8.495c0-.343-.035-.59-.106-.744a.556.556 0 0 0-.39-.303c-.19-.048-.504-.073-.942-.073-.735 0-1.309.211-1.723.633M89.925 83.51c.236.351.522.654.858.906.336.254.802.56 1.4.917.621.383 1.116.713 1.483.99.367.28.68.621.942 1.029.261.407.392.889.392 1.444 0 .605-.159 1.151-.476 1.639-.317.488-.77.87-1.362 1.148-.59.278-1.278.417-2.062.417-.497 0-.989-.059-1.474-.176a4.336 4.336 0 0 1-1.269-.51.323.323 0 0 1-.13-.13.505.505 0 0 1-.037-.221l-.187-2.649c-.013-.049.015-.08.084-.092.068-.012.109.006.121.056.299.938.715 1.734 1.25 2.388.535.655 1.232.982 2.09.982.585 0 1.073-.158 1.465-.472.392-.315.588-.83.588-1.546 0-.544-.125-1.019-.374-1.426-.249-.408-.55-.75-.905-1.028-.354-.278-.83-.596-1.427-.954a18.275 18.275 0 0 1-1.39-.953 3.57 3.57 0 0 1-.868-.982c-.236-.389-.354-.843-.354-1.361 0-.63.17-1.166.513-1.61a3.06 3.06 0 0 1 1.343-.992A4.76 4.76 0 0 1 91.884 80c.833 0 1.586.143 2.258.426.186.074.28.185.28.334l.093 2.314c0 .05-.031.08-.093.093-.063.012-.1-.006-.112-.056a4.75 4.75 0 0 0-.877-1.898c-.448-.599-1.083-.898-1.904-.898-.622 0-1.104.185-1.446.556-.342.37-.513.84-.513 1.407 0 .47.118.88.355 1.231M107.859 88.29c.035 0 .067.009.097.026.029.018.044.033.044.044a17.281 17.281 0 0 0-.176 2.376c0 .094-.018.161-.053.203-.035.04-.106.061-.212.061h-7.506c-.035 0-.053-.035-.053-.106 0-.07.018-.105.053-.105.423 0 .728-.03.916-.088a.584.584 0 0 0 .388-.343c.07-.17.106-.432.106-.784v-8.148c0-.352-.036-.61-.106-.774a.616.616 0 0 0-.397-.344c-.193-.064-.496-.096-.907-.096-.035 0-.053-.036-.053-.106s.018-.106.053-.106h7.19c.116 0 .176.053.176.159l.035 2.217c0 .036-.033.056-.097.062-.065.006-.103-.01-.115-.044-.082-.645-.311-1.135-.687-1.47-.376-.334-.87-.502-1.48-.502h-.899c-.517 0-.863.074-1.04.22-.176.147-.264.432-.264.854v3.573h1.939c.599 0 1.04-.103 1.321-.308.282-.205.423-.525.423-.96 0-.023.032-.035.097-.035.064 0 .097.012.097.036l-.018 1.478.018.792c.023.375.035.669.035.88 0 .024-.035.035-.106.035-.07 0-.105-.011-.105-.035 0-.505-.144-.877-.432-1.118-.288-.24-.749-.36-1.383-.36h-1.886v4.03c0 .422.08.71.238.862.159.153.479.23.96.23h1.146c.67 0 1.225-.197 1.665-.59.44-.393.743-.953.908-1.681 0-.024.023-.035.07-.035M115.982 89.504c0 .329.033.566.1.713a.553.553 0 0 0 .375.3c.183.052.47.078.86.078h1.555c.768 0 1.406-.22 1.912-.66.505-.44.844-1.035 1.015-1.786 0-.035.033-.05.1-.044.067.006.101.027.101.061-.11 1.034-.165 1.89-.165 2.57 0 .094-.021.161-.064.203-.043.04-.112.061-.21.061h-8.524c-.025 0-.037-.035-.037-.106 0-.07.012-.105.037-.105.439 0 .759-.03.96-.088a.603.603 0 0 0 .412-.343c.073-.17.11-.432.11-.784v-8.148c0-.352-.037-.61-.11-.774-.074-.165-.21-.28-.412-.344-.201-.064-.521-.096-.96-.096-.025 0-.037-.036-.037-.106s.012-.106.037-.106l.914.018c.537.023.97.035 1.299.035.33 0 .762-.012 1.299-.035l.914-.018c.025 0 .037.035.037.106 0 .07-.012.106-.037.106-.426 0-.744.032-.95.096-.208.065-.348.182-.422.352-.073.17-.11.432-.11.784v8.06zM129.982 89.504c0 .329.033.566.1.713a.553.553 0 0 0 .375.3c.183.052.47.078.86.078h1.555c.768 0 1.406-.22 1.912-.66.505-.44.844-1.035 1.015-1.786 0-.035.033-.05.1-.044.067.006.101.027.101.061-.11 1.034-.165 1.89-.165 2.57 0 .094-.021.161-.064.203-.043.04-.112.061-.21.061h-8.524c-.025 0-.037-.035-.037-.106 0-.07.012-.105.037-.105.439 0 .759-.03.96-.088a.603.603 0 0 0 .412-.343c.073-.17.11-.432.11-.784v-8.148c0-.352-.037-.61-.11-.774-.074-.165-.21-.28-.412-.344-.201-.064-.521-.096-.96-.096-.025 0-.037-.036-.037-.106s.012-.106.037-.106l.914.018c.537.023.97.035 1.299.035.33 0 .762-.012 1.299-.035l.914-.018c.025 0 .037.035.037.106 0 .07-.012.106-.037.106-.426 0-.744.032-.95.096-.208.065-.348.182-.422.352-.073.17-.11.432-.11.784v8.06zM143.448 90.358c.08.17.231.284.453.343.222.059.575.087 1.059.087.026 0 .04.036.04.106s-.014.106-.04.106c-.43 0-.766-.006-1.008-.018l-1.452-.017-1.411.017a23.94 23.94 0 0 1-1.049.018c-.027 0-.04-.035-.04-.106 0-.07.013-.106.04-.106.484 0 .84-.028 1.069-.087.228-.06.383-.173.464-.343.08-.17.12-.432.12-.784v-8.148c0-.352-.04-.61-.12-.775-.081-.164-.236-.278-.464-.343-.229-.064-.585-.097-1.069-.097-.027 0-.04-.035-.04-.105 0-.07.013-.106.04-.106l1.049.018c.59.023 1.061.035 1.411.035.39 0 .88-.012 1.472-.035l.988-.018c.026 0 .04.035.04.106 0 .07-.014.105-.04.105-.471 0-.82.035-1.049.106-.229.07-.383.19-.463.36-.081.17-.121.431-.121.784v8.113c0 .352.04.613.12.784M162 80.112c0 .075-.018.113-.053.113-.963 0-1.445.648-1.445 1.945v9.767c0 .026-.026.044-.08.057-.052.012-.09.006-.114-.02l-8.264-10.402v7.97c0 .662.115 1.148.344 1.46.229.312.578.468 1.048.468.035 0 .053.037.053.112 0 .075-.018.113-.053.113-.306 0-.54-.006-.705-.019l-.898-.019-.952.019c-.176.013-.435.019-.775.019-.024 0-.036-.038-.036-.113 0-.075.012-.112.036-.112.505 0 .878-.156 1.119-.468.24-.312.36-.798.36-1.46v-8.494c-.516-.55-1.027-.823-1.532-.823-.035 0-.053-.038-.053-.113 0-.075.018-.112.053-.112l.687.019c.141.012.34.018.6.018l.916-.018c.105-.013.24-.019.405-.019.094 0 .161.022.202.065.041.044.109.14.203.29.106.175.253.381.44.618l6.556 8.401V82.17c0-.66-.112-1.15-.335-1.468-.223-.318-.57-.477-1.04-.477-.024 0-.035-.038-.035-.113 0-.075.011-.112.035-.112l.705.019c.352.025.652.037.899.037.211 0 .516-.012.916-.037l.74-.019c.035 0 .053.037.053.112"/>
        <g transform="translate(167 80)">
            <mask id="d" fill="#fff">
                <use xlink:href="#c"/>
            </mask>
            <path fill="#FFF" d="M3.21 11.176C2.215 10.68 1.45 10.003.922 9.15.392 8.297.128 7.343.128 6.288c0-1.15.304-2.17.913-3.058.61-.89 1.446-1.582 2.511-2.08C4.616.652 5.814.403 7.142.403c.592 0 1.167.053 1.727.16.56.107 1.018.25 1.375.427.099.06.16.113.185.16.025.047.043.13.055.249l.24 2.15c0 .036-.034.057-.101.063-.068.006-.108-.009-.12-.044-.32-.877-.843-1.553-1.57-2.027-.726-.474-1.6-.711-2.62-.711-1.453 0-2.573.427-3.36 1.28-.789.854-1.182 2.026-1.182 3.52 0 1.162.233 2.195.701 3.102.468.907 1.11 1.615 1.93 2.124.818.51 1.744.765 2.778.765.59 0 1.046-.053 1.366-.16.32-.107.554-.314.702-.622.147-.308.221-.764.221-1.37 0-.615-.04-1.045-.12-1.288-.08-.243-.252-.406-.517-.489-.265-.083-.723-.124-1.375-.124-.074 0-.111-.048-.111-.142 0-.036.01-.069.028-.098.018-.03.04-.045.064-.045.985.06 1.785.089 2.4.089.579 0 1.194-.018 1.846-.053.025 0 .047.015.065.044.019.03.028.057.028.08 0 .083-.031.125-.093.125-.27-.012-.461.026-.572.116-.11.088-.182.269-.212.541-.031.273-.046.747-.046 1.423 0 .533.02.912.064 1.137.043.226.065.368.065.427 0 .071-.016.116-.046.133-.031.018-.09.045-.176.08-1.513.332-2.861.499-4.043.499-1.341 0-2.51-.25-3.507-.748" mask="url(#d)"/>
        </g>
    </g>
</svg>
