<svg xmlns="http://www.w3.org/2000/svg" xmlns:xlink="http://www.w3.org/1999/xlink" width="50" height="45" viewBox="0 0 50 45">
    <defs>
        <path id="a" d="M.15.026h23.79v35.925H.15z"/>
    </defs>
    <g fill="none" fill-rule="evenodd">
        <path fill="#0D2B51" d="M16.864 3.613c5.06 1.836 9.772 4.3 14.208 7.303 3.264 2.21 6.438 4.505 9.24 7.258 3.709 3.645 6.672 7.76 8.43 12.635a25.255 25.255 0 0 1 1.242 4.957c.01.072.01.144.016.234-1.024-.344-2.016-.7-3.023-1.01-3.49-1.072-7.047-1.775-10.724-1.838-3.272-.055-6.446.402-9.494 1.587-.058.023-.12.04-.18.057-.009.002-.022-.011-.062-.034.225-.141.429-.293.653-.404 1.519-.756 2.15-2.056 2.257-3.616.15-2.195-.215-4.34-.843-6.446-1.236-4.143-3.404-7.818-6.025-11.26C19.569 9.107 16.07 5.64 12.31 2.412c-.095-.083-.19-.166-.282-.252-.017-.015-.02-.044-.029-.066L12.052 2c1.605.536 3.223 1.037 4.812 1.613zM5.204 34.518c1.977-4.382 3.348-8.95 3.77-13.79.392-4.498-.13-8.854-2.017-12.973-.356-.776-.79-1.514-1.19-2.269-.073-.138-.158-.27-.238-.404L5.607 5c.753.53 1.522 1.037 2.255 1.595 3.77 2.87 6.955 6.306 9.354 10.483 2.408 4.192 3.72 8.717 3.783 13.609.008.696-.026 1.392-.03 2.088 0 .24-.073.345-.324.395-3.769.756-7.505 1.654-11.162 2.873-1.97.655-3.91 1.393-5.713 2.462-.263.156-.515.33-.77.495.743-1.504 1.522-2.97 2.204-4.482z"/>
        <g transform="translate(1)">
            <mask id="b" fill="#fff">
                <use xlink:href="#a"/>
            </mask>
            <path fill="#0D2B51" d="M5.268 2.005c5.728 2.95 10.416 7.032 14.017 12.264 2.375 3.452 4.014 7.197 4.513 11.356.418 3.478-.077 6.831-1.557 10.036-.03.066-.064.13-.141.29 0-.162-.01-.227.001-.287 1.204-6.224.172-12.14-2.733-17.752C15.436 10.316 9.375 4.75 1.688.78 1.18.52.662.277.15.026c1.792.466 3.49 1.141 5.118 1.98z" mask="url(#b)"/>
        </g>
        <path fill="#0D2B51" d="M44.226 41.288c-2.32.22-4.645.431-6.948.77-4.333.634-8.648 1.388-12.98 2.033-4.13.614-8.283 1.007-12.473.888-3.983-.113-7.872-.726-11.628-2.036A.524.524 0 0 1 0 42.83c.725.166 1.448.344 2.177.494 3.098.636 6.237.852 9.4.8 3.422-.058 6.82-.396 10.208-.85 3.794-.507 7.584-1.045 11.383-1.52 3.741-.466 7.5-.763 11.278-.753 1.185.003 2.37 0 3.554 0v.095c-1.26.06-2.522.075-3.774.193z"/>
    </g>
</svg>
